<svg viewBox="0 0 64 64" xmlns="http://www.w3.org/2000/svg"><path d="M22 13H8a4 4 0 0 0-4 4v7h4v-6a1 1 0 0 1 1.005-1H16Z" fill="#cfcfd9" class="fill-cfcfd9"></path><path d="M13.45 24 46 3l10.5 21H13.45z" fill="#1f8623" class="fill-0468ad"></path><path d="M13.45 24 46 3a14.511 14.511 0 0 1-12.979 21Z" fill="#12ac2f" class="fill-027de5"></path><path d="M4 23h54v38H8.111A4.111 4.111 0 0 1 4 56.889V23Z" fill="#d9dae2" class="fill-d9dae2"></path><path d="M20 61h38V23a38 38 0 0 1-38 38Z" fill="#cfcfd9" class="fill-cfcfd9"></path><path d="M8 27h46v30H9.14A1.14 1.14 0 0 1 8 55.86V27Z" fill="#d9dae2" class="fill-d9dae2"></path><path d="M8 27h42a30 30 0 0 1-30 30H8V27Z" fill="#e5e6eb" class="fill-e5e6eb"></path><path d="M44 38h16v8H44z" fill="#cfcfd9" class="fill-cfcfd9"></path><path d="M44 38h16a8 8 0 0 1-8 8h-8v-8Z" fill="#e5e6eb" class="fill-e5e6eb"></path><path d="M47 41h2v2h-2z" fill="#444444" class="fill-444444"></path><path d="M8 37V27h10L8 37z" fill="#cfcfd9" class="fill-cfcfd9"></path><path d="M8 37V27h10L8 37z" fill="#ffffff" class="fill-ffffff"></path><path d="M60 37h-1V23a1 1 0 0 0-1-1H9v-4h7a1.006 1.006 0 0 0 .555-.168l6-4A1 1 0 0 0 22 12H8a5 5 0 0 0-5 5v39.889A5.116 5.116 0 0 0 8.111 62H58a1 1 0 0 0 1-1V47h1a1 1 0 0 0 1-1v-8a1 1 0 0 0-1-1ZM5 17a3 3 0 0 1 3-3h10.7l-3 2H9.005A2.006 2.006 0 0 0 7 18v4H5Zm52 43H8.111A3.115 3.115 0 0 1 5 56.889V24h52v13h-2V27a1 1 0 0 0-1-1H8a1 1 0 0 0-1 1v28.859A2.143 2.143 0 0 0 9.141 58H54a1 1 0 0 0 1-1V47h2ZM44 47h9v9H9.141A.141.141 0 0 1 9 55.859V28h44v9h-9a1 1 0 0 0-1 1v8a1 1 0 0 0 1 1Zm15-2H45v-6h14Z" fill="#653dae" class="fill-000000"></path><path d="M47 41h2v2h-2z" fill="#653dae" class="fill-000000"></path></svg>