<svg data-name="Design Convert" viewBox="0 0 64 64" xmlns="http://www.w3.org/2000/svg"><path d="M55 28H34a1 1 0 0 1 0-2h21a1 1 0 0 1 0 2ZM28 57a1 1 0 0 1-.45-.11L8.66 47.45A3 3 0 0 1 7 44.76V10a3 3 0 0 1 3-3h9a1 1 0 0 1 0 2h-7.66l17.09 8.1a1 1 0 0 1 .57.9v38a1 1 0 0 1-.47.85A1 1 0 0 1 28 57ZM9 10.11v34.65a1 1 0 0 0 .55.9L27 54.38V18.63Z" fill="#ffffff" class="fill-010101"></path><path d="M47 37a1 1 0 0 1-.71-.29 1 1 0 0 1 0-1.42l8.3-8.29-8.3-8.29a1 1 0 0 1 1.42-1.42l9 9a1 1 0 0 1 0 1.42l-9 9A1 1 0 0 1 47 37ZM37 47h-9a1 1 0 0 1 0-2h9a1 1 0 0 0 1-1v-8a1 1 0 0 1 2 0v8a3 3 0 0 1-3 3ZM39 19a1 1 0 0 1-1-1v-8a1 1 0 0 0-1-1H15a1 1 0 0 1 0-2h22a3 3 0 0 1 3 3v8a1 1 0 0 1-1 1Z" fill="#ffffff" class="fill-010101"></path></svg>