<?xml version="1.0" encoding="utf-8"?>
<!-- Generator: Adobe Illustrator 24.0.2, SVG Export Plug-In . SVG Version: 6.00 Build 0)  -->
<svg version="1.1" id="Layer_1" xmlns="http://www.w3.org/2000/svg" xmlns:xlink="http://www.w3.org/1999/xlink" x="0px" y="0px"
	 viewBox="0 0 150 150" style="enable-background:new 0 0 150 150;" xml:space="preserve">
<style type="text/css">
	.st0{fill:#C3C4CA;}
	.st1{fill:#4DA82C;}
	.st2{fill:#96BD11;}
	.st3{fill:#322B2A;}
	.st4{fill:#83CCF0;}
	.st5{fill:#F7E4B3;}
	.st6{fill:#E9AB51;}
	.st7{fill:#DD2989;}
	.st8{fill:#F8BD20;}
	.st9{fill:#C79E6A;}
	.st10{fill:#1E120D;}
	.st11{fill:#12348D;}
	.st12{fill:#040F57;}
	.st13{fill:#ECEEF0;}
	.st14{fill:#143753;}
	.st15{fill:#F5AB00;}
	.st16{fill:#21557F;}
	.st17{fill:#D8D9DD;}
	.st18{fill:#8E2036;}
	.st19{fill:#BD2B48;}
	.st20{opacity:0.4;}
	.st21{fill:#F7F7F8;}
</style>
<g>
	
		<image style="overflow:visible;" width="655" height="112" xlink:href="C3A296C5.png"  transform="matrix(0.1167 0 0 0.1167 44.8849 -19.5)">
	</image>
</g>
<g>
	
		<image style="overflow:visible;opacity:0.2;" width="740" height="671" xlink:href="C3A296CB.png"  transform="matrix(0.24 0 0 0.24 -6.84 1.56)">
	</image>
	<g>
		<g>
			<g>
				<path class="st0" d="M83.1,37.5c-0.8,0-1.6-0.5-1.8-1.3c-0.3-1,0.2-2.1,1.2-2.4l9.4-3c1.1-0.4,2.4,0.3,2.7,1.4
					c0.4,1.1-0.3,2.4-1.4,2.7l-5.8,1.9c-0.1,0-0.3,0-0.3-0.2c0-0.1,0-0.3,0.2-0.3l5.8-1.9c0.9-0.3,1.3-1.2,1.1-2.1
					c-0.1-0.4-0.4-0.8-0.8-1c-0.4-0.2-0.8-0.2-1.3-0.1l-9.4,3c-0.7,0.2-1.1,1-0.9,1.7c0.2,0.7,1,1.1,1.7,0.9l6.9-2.2
					c0.6-0.2,0.9-0.8,0.7-1.4c-0.2-0.6-0.8-0.9-1.4-0.7l-4.3,1.4c-0.1,0-0.3,0-0.3-0.2c0-0.1,0-0.3,0.2-0.3l4.3-1.4
					c0.9-0.3,1.8,0.2,2.1,1.1c0.3,0.9-0.2,1.8-1.1,2.1l-6.9,2.2C83.5,37.4,83.3,37.5,83.1,37.5z"/>
			</g>
			<g>
				<g>
					<path class="st1" d="M22.2,124.5c0,0-3.4-4.1-4.9-6.1c-3.6-4.8-7.2-9.9-8.5-15.8c4.6,3.1,8.8,7.1,10.9,12.2
						C20.9,117.9,22.2,124.5,22.2,124.5z"/>
				</g>
				<g>
					<g>
						<path class="st1" d="M37.3,134.6c-7.2-1.8-12.6-7-16.8-12.8c-0.2-0.2-0.6,0-0.4,0.2c4.3,6,9.7,11.3,17.1,13.1
							C37.5,135.2,37.6,134.7,37.3,134.6L37.3,134.6z"/>
					</g>
				</g>
				<g>
					<path class="st1" d="M23.5,126c-1-1.6-2.9-2.8-4.7-3.4c-1.8-0.6-3.7-0.8-5.5-1.3c-2.2-0.5-4.3-1.3-6.3-2.4
						C10.3,124.3,17.2,127.3,23.5,126z"/>
				</g>
				<g>
					<path class="st1" d="M32.2,133c0,0-4.5-0.3-6.9-0.8c-1.8-0.4-3.6-0.9-5.3-1.6c-1.7-0.8-3.2-1.9-4.4-3.3
						c2.3,0.8,4.8,0.6,7.2,1.2C26,129.1,32.2,133,32.2,133z"/>
				</g>
				<g>
					<path class="st1" d="M33.6,133.8c0,0-1.6-4.2-2.8-6.3c-0.9-1.6-1.9-3.2-3.1-4.5c-1.2-1.4-2.7-2.5-4.4-3.2c1.4,2,2,4.4,3.2,6.5
						C28,128.9,33.6,133.8,33.6,133.8z"/>
				</g>
			</g>
			<g>
				<path class="st1" d="M43.4,72.9c0.6-2.9-0.4-6.3-1.9-8.9c-1.5-2.6-3.4-4.8-5.1-7.3c-2-2.9-3.7-6-4.8-9.4
					C29.8,57.3,34.8,67.9,43.4,72.9z"/>
			</g>
			<g>
				<g>
					<path class="st1" d="M99.8,49.5c0,0,1.8-8.1,2.4-11.9c1.5-9.3,2.9-18.9,0.5-28c-4.1,7.6-7.2,16.1-6.3,24.7
						C96.9,39.4,99.8,49.5,99.8,49.5z"/>
				</g>
				<g>
					<g>
						<path class="st1" d="M87.6,79.3c0.6-3.4,1.5-6.5,3.6-9.2c1.6-2.1,3.4-4,4.6-6.3c1.8-3.3,2.6-7,3.2-10.7
							c0.6-3.6,1.1-7.3,1.3-10.9c0-0.3-0.5-0.3-0.5,0c-0.2,3.8-0.8,7.7-1.4,11.5c-0.6,3.8-1.6,7.7-3.6,11c-1.3,2.1-3,3.8-4.4,5.8
							c-1.9,2.6-2.8,5.7-3.3,8.8C87.1,79.5,87.5,79.6,87.6,79.3L87.6,79.3z"/>
					</g>
				</g>
				<g>
					<path class="st1" d="M99.4,50.1c-0.1-3,1.4-6.1,3.3-8.4c1.9-2.3,4.2-4.2,6.2-6.3c2.4-2.6,4.6-5.3,6.2-8.5
						C115.2,36.8,108.7,46.5,99.4,50.1z"/>
				</g>
				<g>
					<path class="st1" d="M93.8,66.8c0,0,5.6-4.2,8.3-6.9c2-2,4-4.2,5.5-6.6c1.5-2.4,2.7-5.1,2.9-8c-2.4,2.9-5.8,4.9-8.5,7.6
						C98.7,56.4,93.8,66.8,93.8,66.8z"/>
				</g>
				<g>
					<path class="st1" d="M94.8,65.3c0,0,2-6.9,2.1-10.7c0.1-2.9-1.3-8.4-5.8-13.9c0.3,3.8,0.2,5.1,0.2,8.9
						C91.2,54.4,94.8,65.3,94.8,65.3z"/>
				</g>
			</g>
			<g>
				<path class="st2" d="M50.6,48c0,0-3-4.1-4.3-6.1c-3.2-4.9-6.3-10-7.2-15.7c4.2,3.3,8,7.3,9.7,12.4C49.7,41.6,50.6,48,50.6,48z"
					/>
			</g>
			<g>
				<path class="st1" d="M101.9,115.1c0.5-2.9,2.6-5.7,4.9-7.6c2.3-1.9,4.9-3.3,7.3-5c2.9-2,5.5-4.3,7.7-7.1
					C120.1,105.2,111.8,113.4,101.9,115.1z"/>
			</g>
			<g>
				<path class="st2" d="M94.3,138.7c0.4-2.2,2-4.4,3.8-5.9c1.7-1.5,3.8-2.5,5.6-3.9c2.2-1.6,4.3-3.3,5.9-5.5
					C108.3,131,101.8,137.4,94.3,138.7z"/>
			</g>
			<g>
				<path class="st2" d="M37.8,120.5c0,0-2.1-4.7-2.9-6.9c-2-5.4-4-11.1-3.7-16.9c3.4,4.1,6.3,8.9,6.8,14.2
					C38.3,114.1,37.8,120.5,37.8,120.5z"/>
			</g>
			<g>
				<g>
					<path class="st2" d="M115.8,73.5c0,0,5.4-10.6,8.1-15.4c6.7-11.6,13.9-23.5,24.8-31.4c-2.4,12.1-6.7,24.3-15.4,33
						C128.1,65,115.8,73.5,115.8,73.5z"/>
				</g>
				<g>
					<g>
						<path class="st2" d="M101.5,110.3c0-16.5,8.9-31,19.5-43c0.2-0.2-0.1-0.6-0.3-0.3C110,79,101.1,93.7,101.1,110.3
							C101.1,110.6,101.5,110.6,101.5,110.3L101.5,110.3z"/>
					</g>
				</g>
				<g>
					<path class="st2" d="M113.6,76c3-2.9,4.6-7.7,5-11.9c0.4-4.2-0.1-8.4,0-12.7c0.1-5.1,0.6-10,2.1-14.9
						C110.5,46.5,107.6,63.1,113.6,76z"/>
				</g>
				<g>
					<path class="st2" d="M102.7,98.5c0,0-1.6-9.9-1.6-15.3C101,79.2,101.1,75,102,71c0.8-4,2.4-7.9,5-11.1
						c-0.5,5.4,1.1,10.8,1.1,16.2C108,83,102.7,98.5,102.7,98.5z"/>
				</g>
				<g>
					<path class="st2" d="M98.2,92.6c0,0,9.7-2.5,14.7-4.6c3.8-1.6,7.5-3.3,10.9-5.7c3.4-2.4,6.3-5.3,8.2-9
						c-4.8,2.6-10.4,3.3-15.3,5.4C110.3,81.5,98.2,92.6,98.2,92.6z"/>
				</g>
			</g>
			<g>
				<g>
					<path class="st2" d="M20.7,94.9c0,0-3.3-7.6-4.7-11.2c-3.3-8.8-6.5-18-5.9-27.4c5.5,6.7,10.2,14.4,11,23
						C21.6,84.5,20.7,94.9,20.7,94.9z"/>
				</g>
				<g>
					<g>
						<path class="st2" d="M39.2,122.7c-1.1-3-2.6-5.8-4.8-8.1c-1.9-2-4.1-3.5-5.9-5.6c-2.7-3.1-4.5-7-5.9-10.8
							c-1.3-3.4-2.5-6.9-3.4-10.4c-0.1-0.3-0.5-0.2-0.5,0.1c0.9,3.5,2.1,7,3.4,10.4c1.3,3.5,2.9,7,5.2,10c1.7,2.2,3.8,3.8,5.7,5.7
							c2.7,2.5,4.4,5.5,5.7,8.9C38.9,123.1,39.4,123,39.2,122.7L39.2,122.7z"/>
					</g>
				</g>
				<g>
					<path class="st2" d="M21.2,95.4c-0.5-2.9-2.6-5.7-4.9-7.6c-2.3-1.9-4.9-3.3-7.3-5c-2.9-2-5.5-4.3-7.7-7.1
						C3,85.5,11.4,93.8,21.2,95.4z"/>
				</g>
				<g>
					<path class="st2" d="M29.9,110.7c0,0-6.3-3-9.5-5.1c-2.4-1.6-4.7-3.3-6.7-5.4c-2-2.1-3.6-4.5-4.4-7.3c2.9,2.4,6.7,3.7,9.8,5.8
						C23,101.5,29.9,110.7,29.9,110.7z"/>
				</g>
				<g>
					<path class="st2" d="M28.6,109.5c0,0-3.3-6.4-4.2-10.1c-0.6-2.8-0.3-8.5,3-14.7c0.5,3.8,0.8,5,1.6,8.8
						C30.1,98.1,28.6,109.5,28.6,109.5z"/>
				</g>
			</g>
			<g>
				<g>
					<path class="st3" d="M98.7,78.5h-1.8V63.9h1.8c0,0,2.9,5.5,2.9,7.3C101.6,73,98.7,78.5,98.7,78.5z"/>
				</g>
				<g>
					<path class="st4" d="M98.4,79.8c-0.3,0-0.7-0.1-1-0.4c-0.5-0.5-0.5-1.4,0-1.9c3.6-3.4,3.6-9.1,0.2-12.7c-0.5-0.5-0.5-1.4,0-1.9
						c0.5-0.5,1.4-0.5,1.9,0c4.5,4.6,4.4,12-0.3,16.5C99.1,79.7,98.8,79.8,98.4,79.8z"/>
				</g>
				<g>
					<rect x="33.9" y="63.9" class="st5" width="64" height="14.6"/>
				</g>
				<g>
					<path class="st4" d="M98.7,65.2h-67c-0.7,0-1.3-0.6-1.3-1.3s0.6-1.3,1.3-1.3h67c0.7,0,1.3,0.6,1.3,1.3S99.4,65.2,98.7,65.2z"/>
				</g>
				<g>
					<path class="st4" d="M98.4,79.8H31.7c-0.7,0-1.3-0.6-1.3-1.3c0-0.7,0.6-1.3,1.3-1.3h66.8c0.7,0,1.3,0.6,1.3,1.3
						C99.8,79.2,99.2,79.8,98.4,79.8z"/>
				</g>
				<g>
					<path class="st6" d="M87.4,67.5H35.9c-0.1,0-0.2-0.1-0.2-0.2c0-0.1,0.1-0.2,0.2-0.2h51.5c0.1,0,0.2,0.1,0.2,0.2
						C87.5,67.4,87.5,67.5,87.4,67.5z"/>
				</g>
				<g>
					<path class="st6" d="M88.4,69.9H36.9c-0.1,0-0.2-0.1-0.2-0.2c0-0.1,0.1-0.2,0.2-0.2h51.5c0.1,0,0.2,0.1,0.2,0.2
						C88.6,69.8,88.5,69.9,88.4,69.9z"/>
				</g>
				<g>
					<path class="st6" d="M95.6,72.4H44.1c-0.1,0-0.2-0.1-0.2-0.2c0-0.1,0.1-0.2,0.2-0.2h51.5c0.1,0,0.2,0.1,0.2,0.2
						C95.8,72.3,95.7,72.4,95.6,72.4z"/>
				</g>
			</g>
			<g>
				<g>
					<path class="st3" d="M34.6,123.5h1.8v14.6h-1.8c0,0-2.9-5.5-2.9-7.3S34.6,123.5,34.6,123.5z"/>
				</g>
				<g>
					<rect x="35.4" y="123.5" class="st5" width="64" height="14.6"/>
				</g>
				<g>
					<g>
						<path class="st4" d="M34.6,139.4c-0.3,0-0.7-0.1-1-0.4c-4.5-4.6-4.4-12,0.3-16.5c0.5-0.5,1.4-0.5,1.9,0c0.5,0.5,0.5,1.4,0,1.9
							c-3.6,3.4-3.6,9.1-0.2,12.7c0.5,0.5,0.5,1.4,0,1.9C35.3,139.3,34.9,139.4,34.6,139.4z"/>
					</g>
					<g>
						<path class="st4" d="M101.6,139.4h-67c-0.7,0-1.3-0.6-1.3-1.3s0.6-1.3,1.3-1.3h67c0.7,0,1.3,0.6,1.3,1.3
							S102.3,139.4,101.6,139.4z"/>
					</g>
					<g>
						<path class="st4" d="M101.6,124.8H34.8c-0.7,0-1.3-0.6-1.3-1.3c0-0.7,0.6-1.3,1.3-1.3h66.8c0.7,0,1.3,0.6,1.3,1.3
							C102.9,124.2,102.3,124.8,101.6,124.8z"/>
					</g>
					<g>
						<path class="st6" d="M97.4,134.8H45.9c-0.1,0-0.2-0.1-0.2-0.2c0-0.1,0.1-0.2,0.2-0.2h51.5c0.1,0,0.2,0.1,0.2,0.2
							C97.6,134.8,97.5,134.8,97.4,134.8z"/>
					</g>
					<g>
						<path class="st6" d="M93.3,130.3H41.8c-0.1,0-0.2-0.1-0.2-0.2s0.1-0.2,0.2-0.2h51.5c0.1,0,0.2,0.1,0.2,0.2
							S93.4,130.3,93.3,130.3z"/>
					</g>
					<g>
						<path class="st6" d="M89.1,128.1H37.6c-0.1,0-0.2-0.1-0.2-0.2c0-0.1,0.1-0.2,0.2-0.2h51.5c0.1,0,0.2,0.1,0.2,0.2
							C89.3,128,89.2,128.1,89.1,128.1z"/>
					</g>
				</g>
			</g>
			<g>
				<path class="st7" d="M107.8,122.2H40.1c-1.2,0-2.1-0.9-2.1-2.1c0-1.2,0.9-2.1,2.1-2.1h67.7c1.2,0,2.1,0.9,2.1,2.1
					C109.9,121.2,109,122.2,107.8,122.2z"/>
			</g>
			<g>
				<g>
					<path class="st3" d="M113.5,99.4h-2.2V81.1h2.2c0,0,3.7,6.9,3.7,9.2C117.1,92.6,113.5,99.4,113.5,99.4z"/>
				</g>
				<g>
					<path class="st7" d="M113.2,100.7c-0.3,0-0.7-0.1-1-0.4c-0.5-0.5-0.5-1.4,0-1.9c2.2-2.2,3.5-5,3.5-8.1c0-3.1-1.1-6-3.3-8.2
						c-0.5-0.5-0.5-1.4,0-1.9c0.5-0.5,1.4-0.5,1.9,0c2.7,2.7,4.1,6.3,4,10.2c-0.1,3.8-1.6,7.4-4.3,10
						C113.9,100.6,113.5,100.7,113.2,100.7z"/>
				</g>
				<g>
					<rect x="32.3" y="81.1" class="st5" width="80.2" height="18.3"/>
				</g>
				<g>
					<path class="st7" d="M113.5,82.5H29.6c-0.7,0-1.3-0.6-1.3-1.3c0-0.7,0.6-1.3,1.3-1.3h83.9c0.7,0,1.3,0.6,1.3,1.3
						C114.8,81.9,114.2,82.5,113.5,82.5z"/>
				</g>
				<g>
					<path class="st7" d="M113.2,100.8H29.6c-0.7,0-1.3-0.6-1.3-1.3s0.6-1.3,1.3-1.3h83.6c0.7,0,1.3,0.6,1.3,1.3
						S114,100.8,113.2,100.8z"/>
				</g>
				<g>
					<path class="st6" d="M99.3,85.6H34.8c-0.1,0-0.2-0.1-0.2-0.2c0-0.1,0.1-0.2,0.2-0.2h64.5c0.1,0,0.2,0.1,0.2,0.2
						C99.5,85.6,99.4,85.6,99.3,85.6z"/>
				</g>
				<g>
					<path class="st6" d="M102.6,93.2H38.2c-0.1,0-0.2-0.1-0.2-0.2c0-0.1,0.1-0.2,0.2-0.2h64.5c0.1,0,0.2,0.1,0.2,0.2
						C102.8,93.2,102.7,93.2,102.6,93.2z"/>
				</g>
				<g>
					<path class="st6" d="M101.7,95.7H37.2c-0.1,0-0.2-0.1-0.2-0.2s0.1-0.2,0.2-0.2h64.5c0.1,0,0.2,0.1,0.2,0.2
						S101.8,95.7,101.7,95.7z"/>
				</g>
			</g>
			<g>
				<g>
					<path class="st3" d="M104.9,116.7h-1.8v-14.6h1.8c0,0,2.9,5.5,2.9,7.3C107.8,111.2,104.9,116.7,104.9,116.7z"/>
				</g>
				<g>
					<path class="st8" d="M104.7,118c-0.3,0-0.7-0.1-1-0.4c-0.5-0.5-0.5-1.4,0-1.9c3.6-3.4,3.6-9.1,0.2-12.7c-0.5-0.5-0.5-1.4,0-1.9
						c0.5-0.5,1.4-0.5,1.9,0c4.5,4.6,4.4,12-0.3,16.5C105.3,117.9,105,118,104.7,118z"/>
				</g>
				<g>
					<rect x="40.1" y="102.1" class="st5" width="64" height="14.6"/>
				</g>
				<g>
					<path class="st8" d="M104.9,103.4h-67c-0.7,0-1.3-0.6-1.3-1.3s0.6-1.3,1.3-1.3h67c0.7,0,1.3,0.6,1.3,1.3
						S105.6,103.4,104.9,103.4z"/>
				</g>
				<g>
					<path class="st8" d="M104.7,118H37.9c-0.7,0-1.3-0.6-1.3-1.3c0-0.7,0.6-1.3,1.3-1.3h66.8c0.7,0,1.3,0.6,1.3,1.3
						C106,117.4,105.4,118,104.7,118z"/>
				</g>
				<g>
					<path class="st6" d="M93.6,105.7H42.1c-0.1,0-0.2-0.1-0.2-0.2c0-0.1,0.1-0.2,0.2-0.2h51.5c0.1,0,0.2,0.1,0.2,0.2
						C93.8,105.6,93.7,105.7,93.6,105.7z"/>
				</g>
				<g>
					<path class="st6" d="M94.6,108.1H43.1c-0.1,0-0.2-0.1-0.2-0.2c0-0.1,0.1-0.2,0.2-0.2h51.5c0.1,0,0.2,0.1,0.2,0.2
						C94.8,108,94.7,108.1,94.6,108.1z"/>
				</g>
				<g>
					<path class="st6" d="M101.8,110.6H50.4c-0.1,0-0.2-0.1-0.2-0.2c0-0.1,0.1-0.2,0.2-0.2h51.5c0.1,0,0.2,0.1,0.2,0.2
						C102,110.5,102,110.6,101.8,110.6z"/>
				</g>
				<g>
					<g>
						<path class="st1" d="M66.6,110.9l-3-3.8l-3,3.8v-10.1c0,0,0-0.1,0.1-0.1c0.3,0,1.3-0.2,2.9-0.2c1.7,0,2.7,0.1,2.9,0.2
							c0,0,0.1,0,0.1,0.1V110.9z"/>
					</g>
				</g>
			</g>
			<g>
				<g>
					<polygon class="st9" points="27.1,73.5 24.1,82.7 28.5,83.1 					"/>
				</g>
				<g>
					<polygon class="st10" points="27.1,73.5 26.3,75.9 27.5,76 					"/>
				</g>
				<g>
					<path class="st11" d="M28.5,83.2c0-0.4-0.3-0.8-0.7-0.8c-0.4,0-0.8,0.3-0.8,0.7c0-0.4-0.3-0.8-0.7-0.8c-0.4,0-0.8,0.3-0.8,0.7
						c0-0.4-0.3-0.8-0.7-0.8c-0.4,0-0.8,0.3-0.8,0.7l-4.7,53.4l0,0l-0.2,2c-0.1,0.7,0.5,1.4,1.2,1.5l1.7,0.2
						c0.7,0.1,1.4-0.5,1.5-1.2l0.1-0.7l0,0L28.5,83.2z"/>
				</g>
				<g>
					<path class="st12" d="M28.5,83.2c0-0.4-0.3-0.8-0.7-0.8c-0.4,0-0.8,0.3-0.8,0.7c0-0.4-4.6,50.6-5.1,56.7l0.2,0
						c0.7,0.1,1.4-0.5,1.5-1.2l0.1-0.7l0,0L28.5,83.2z"/>
				</g>
				<g>
					<path class="st3" d="M20.2,126.6l-0.8,9.6l-0.2,2c-0.1,0.7,0.5,1.4,1.2,1.5l1.7,0.2c0.7,0.1,1.4-0.5,1.5-1.2l0.1-0.7l0.9-10.8
						L20.2,126.6z"/>
				</g>
				<g>
					<polygon class="st13" points="20.2,126.6 20.1,127.8 24.5,128.1 24.6,126.9 					"/>
				</g>
				<g>
					<polygon class="st3" points="23.4,119.2 22.8,119.2 22.4,123.6 23,123.7 					"/>
				</g>
				<g>
					<polygon class="st13" points="22.5,129.6 21.9,129.6 21.7,131.8 22.3,131.8 					"/>
				</g>
			</g>
			<g>
				<path class="st2" d="M37.1,117.4c-2.2,1-5,0.9-7.3,0.2c-2.3-0.7-4.4-1.7-6.7-2.6c-2.7-1-5.4-1.7-8.2-1.9
					C22.2,109.8,31.5,111.6,37.1,117.4z"/>
			</g>
			<g>
				<path class="st0" d="M23.9,74.1c-0.3,0-0.5-0.1-0.8-0.2c-0.5-0.2-0.8-0.6-1-1.1l-3.4-9.3c-0.4-1.1,0.2-2.4,1.3-2.8
					c0.5-0.2,1.1-0.2,1.7,0.1c0.5,0.2,0.9,0.7,1.1,1.2l2.1,5.8c0,0.1,0,0.3-0.2,0.3c-0.1,0.1-0.3,0-0.3-0.2l-2.1-5.8
					c-0.2-0.4-0.5-0.7-0.9-0.9c-0.4-0.2-0.8-0.2-1.3,0c-0.9,0.3-1.3,1.3-1,2.1l3.4,9.3c0.3,0.7,1.1,1.1,1.8,0.8
					c0.7-0.3,1.1-1.1,0.8-1.8l-2.5-6.8c-0.2-0.6-0.9-0.9-1.4-0.7c-0.6,0.2-0.9,0.9-0.7,1.4l1.6,4.2c0,0.1,0,0.3-0.2,0.3
					c-0.1,0.1-0.3,0-0.3-0.2l-1.6-4.2c-0.3-0.8,0.1-1.8,1-2.1c0.8-0.3,1.8,0.1,2.1,1l2.5,6.8c0.4,1-0.1,2.1-1.1,2.4
					C24.4,74.1,24.2,74.1,23.9,74.1z"/>
			</g>
			<g>
				<path class="st0" d="M115.4,128.3c-0.4,0-0.8-0.1-1.2-0.4c-0.5-0.3-0.8-0.8-0.9-1.4l-1.2-6c0-0.1,0.1-0.3,0.2-0.3
					c0.1,0,0.3,0.1,0.3,0.2l1.2,6c0.1,0.4,0.3,0.8,0.7,1c0.4,0.2,0.8,0.3,1.2,0.2c0.9-0.2,1.5-1.1,1.3-1.9l-1.9-9.7
					c-0.2-0.7-0.9-1.2-1.6-1.1c-0.7,0.2-1.2,0.9-1.1,1.6l1.4,7.1c0.1,0.3,0.2,0.5,0.5,0.7c0.3,0.2,0.5,0.2,0.8,0.2
					c0.3-0.1,0.5-0.2,0.7-0.5c0.2-0.3,0.2-0.5,0.2-0.8l-0.9-4.4c0-0.1,0.1-0.3,0.2-0.3c0.1,0,0.3,0.1,0.3,0.2l0.9,4.4
					c0.1,0.4,0,0.9-0.2,1.2c-0.2,0.4-0.6,0.6-1,0.7c-0.4,0.1-0.9,0-1.2-0.2c-0.4-0.2-0.6-0.6-0.7-1l-1.4-7.1c-0.2-1,0.5-2,1.5-2.2
					c0.5-0.1,1,0,1.4,0.3c0.4,0.3,0.7,0.7,0.8,1.2l1.9,9.7c0.2,1.2-0.5,2.3-1.7,2.6C115.7,128.3,115.6,128.3,115.4,128.3z"/>
			</g>
			<g>
				<g>
					<g>
						<polygon class="st14" points="101.1,43.4 90.8,45.5 47,48.2 34.5,43.4 69,32.1 						"/>
					</g>
				</g>
				<g>
					<path class="st8" d="M101.4,41.7L69.5,31.3c0,0,0,0-0.1,0c0,0-0.1,0-0.1,0c0,0-0.1,0-0.1,0c0,0-0.1,0-0.1,0c0,0-0.1,0-0.1,0
						c0,0-0.1,0-0.1,0c0,0-0.1,0-0.1,0c0,0,0,0-0.1,0L34.3,41.6c-0.5,0.1-0.8,0.6-0.6,1.1c0.1,0.4,0.5,0.7,0.9,0.7
						c0.1,0,0.2,0,0.2,0L69,33l31.6,10.3c0.1,0.1,0.3,0.1,0.4,0.1c0.3,0,0.6-0.2,0.8-0.5C102,42.5,101.8,42,101.4,41.7z"/>
				</g>
				<g>
					<polygon class="st15" points="63.8,34.9 63.8,33 62.5,33.5 62.5,35.4 					"/>
				</g>
				<g>
					<g>
						<path class="st16" d="M90.8,62.1c0,0-13.1,1.4-21.8,1.4c-10.2,0-21.9-1.4-21.9-1.4V43.5c0,0,9.8-3.6,21.9-3.6
							c11.5,0,21.8,3.6,21.8,3.6V62.1z"/>
					</g>
				</g>
				<g>
					<g>
						<path class="st14" d="M57.3,63C50.9,62.6,47,62.1,47,62.1V43.5c0,0,4.2-1.9,10.5-3.2L57.3,63z"/>
					</g>
				</g>
				<g>
					<g>
						<g>
							<path class="st15" d="M69,63.8c-14.2,0-20.3-1-22-1.3l0-1.6c0.8,0.2,6.7,1.4,22,1.4c8,0,19.7-1.2,21.7-1.4v1.6
								C88.3,62.7,76.8,63.8,69,63.8z"/>
						</g>
					</g>
				</g>
				<g>
					<g>
						<g>
							<path class="st8" d="M69,64.3c-16.5,0-21.9-1.4-22.1-1.4c-0.4-0.1-0.7-0.5-0.5-0.9c0.1-0.4,0.5-0.7,0.9-0.5
								c0.1,0,5.5,1.4,21.8,1.4c8.6,0,21.6-1.4,21.7-1.4c0.4,0,0.8,0.3,0.8,0.7c0,0.4-0.3,0.8-0.7,0.8C90.7,62.9,77.6,64.3,69,64.3z
								"/>
						</g>
					</g>
				</g>
				<g>
					<path class="st8" d="M63.6,41.9c-0.1-0.4-0.3-0.8-0.3-1.1c0,0,0,0,0,0v-7.6c0-0.4-0.3-0.7-0.7-0.7c-0.4,0-0.7,0.3-0.7,0.7v7.6
						c0,0,0,0,0,0c0,0.3-0.1,0.9-0.2,1.4c-0.1,0.6-0.2,1.2-0.2,1.6c0,0.2,0.2,0.3,0.3,0.3c0.2,0,0.3-0.2,0.3-0.3
						c0-0.2,0.1-0.8,0.2-1.3c0,0,0,0,0,0c0,0.7,0.1,1.3,0.1,1.6c0,0.2,0.2,0.3,0.3,0.3c0.2,0,0.3-0.2,0.3-0.3c0-0.3,0-1-0.1-1.7
						c0,0,0-0.1,0-0.1c0.1,0.3,0.2,0.7,0.2,0.8c0,0.2,0.2,0.3,0.3,0.3c0.2,0,0.3-0.2,0.3-0.3C63.9,42.9,63.8,42.4,63.6,41.9z"/>
				</g>
				<g>
					<path class="st14" d="M68.9,54.9c-0.1,0-0.2-0.1-0.2-0.2v-5.8c0-0.1,0.1-0.2,0.2-0.2c0.1,0,0.2,0.1,0.2,0.2v5.8
						C69.1,54.8,69,54.9,68.9,54.9z"/>
				</g>
			</g>
			<g>
				<g>
					<g>
						<path class="st17" d="M125.3,134.2l1.8-0.2c0.1,0,0.3,0.1,0.2,0.2l-0.4,4.9c0,0.2-0.4,0.3-0.4,0l-1.4-4.7
							C125.1,134.3,125.2,134.2,125.3,134.2z"/>
					</g>
				</g>
				<g>
					<g>
						<path class="st3" d="M120.7,83.2c-0.4,0-0.7-0.2-0.8-0.6l-0.6-5.4c0-0.4,0.2-0.7,0.6-0.8c0,0,0,0,0,0c0.4,0,0.7,0.2,0.8,0.6
							l0.6,5.4C121.4,82.8,121.1,83.1,120.7,83.2C120.7,83.2,120.7,83.2,120.7,83.2z"/>
					</g>
				</g>
				<g>
					<g>
						<path class="st17" d="M126.2,134.2L126.2,134.2c-1.5,0.2-2.8-0.9-3-2.4l-5.6-51.4c-0.2-1.5,5.2-2.1,5.4-0.6l5.6,51.4
							C128.8,132.7,127.7,134.1,126.2,134.2z"/>
					</g>
				</g>
				<g>
					<g>
						<path class="st13" d="M126.2,134.2L126.2,134.2l-6-55.2c1.3-0.1,2.7,0.1,2.8,0.8l5.6,51.4
							C128.8,132.7,127.7,134.1,126.2,134.2z"/>
					</g>
				</g>
				<g>
					<g>
						<path class="st3" d="M119.9,100.9c-0.3,0-0.5-0.2-0.6-0.5c0-0.3,0.2-0.5,0.5-0.6l5.4-0.6c0,0,0,0,0,0c0.3,0,0.5,0.2,0.6,0.5
							c0,0.3-0.2,0.5-0.5,0.6L119.9,100.9C119.9,100.9,119.9,100.9,119.9,100.9z"/>
					</g>
				</g>
				<g>
					<g>
						<path class="st3" d="M125.7,93.8c-0.3,0-0.5-0.2-0.6-0.5l-0.8-6.9c0-0.3,0.2-0.5,0.5-0.6c0,0,0,0,0,0c0.3,0,0.5,0.2,0.6,0.5
							l0.8,6.9C126.2,93.5,126,93.8,125.7,93.8C125.7,93.8,125.7,93.8,125.7,93.8z"/>
					</g>
				</g>
				<g>
					<g>
						<path class="st3" d="M123.4,83.4c-0.3,0-0.5-0.2-0.6-0.5c0-0.3,0.2-0.5,0.5-0.6l2.1-0.2c0,0,0,0,0,0c0.3,0,0.5,0.2,0.6,0.5
							c0,0.3-0.2,0.5-0.5,0.6L123.4,83.4C123.4,83.4,123.4,83.4,123.4,83.4z"/>
					</g>
				</g>
				<g>
					<g>
						<path class="st3" d="M118.1,84.3c-0.4,0-0.8-0.3-0.9-0.7c0-0.4,0.3-0.8,0.7-0.9l5.4-0.6c0,0,0,0,0,0c0.4,0,0.8,0.3,0.9,0.7
							c0,0.4-0.3,0.8-0.7,0.9L118.1,84.3C118.1,84.3,118.1,84.3,118.1,84.3z"/>
					</g>
				</g>
				<g>
					<g>
						<path class="st3" d="M124.9,86.9c-0.1,0-0.2,0-0.3-0.1c-0.2-0.1-0.3-0.5-0.2-0.7l0.8-1.4c0.1-0.2,0.5-0.3,0.7-0.2
							c0.2,0.1,0.3,0.5,0.2,0.7l-0.8,1.4C125.2,86.8,125.1,86.9,124.9,86.9z"/>
					</g>
				</g>
				<g>
					<g>
						<path class="st3" d="M125.7,85.5c-0.3,0-0.5-0.2-0.6-0.5l-0.2-2.3c0-0.3,0.2-0.5,0.5-0.6c0.3,0,0.5,0.2,0.6,0.5l0.2,2.3
							C126.2,85.2,126,85.4,125.7,85.5z"/>
					</g>
				</g>
				<g>
					<g>
						<path class="st4" d="M127.9,129.6l-4.3,0.5c-0.3,0-0.5,0.3-0.5,0.7c0.7,6.8,2.9,6.7,2.9,6.7l1-0.1c0,0,2.1-0.4,1.4-7.1
							C128.5,129.8,128.2,129.5,127.9,129.6z"/>
					</g>
				</g>
				<g>
					<g>
						<path class="st3" d="M123,130.5c-0.2,0-0.4-0.1-0.4-0.3c0-0.2,0.1-0.4,0.3-0.4l5.4-0.6c0,0,0,0,0,0c0.2,0,0.4,0.1,0.4,0.3
							c0,0.2-0.1,0.4-0.3,0.4L123,130.5C123,130.5,123,130.5,123,130.5z"/>
					</g>
				</g>
				<g>
					<g>
						<path class="st3" d="M126.7,139.3c0,0-0.1,0-0.1,0c0,0-0.1-0.1-0.1-0.1c0,0,0-0.1,0-0.1c0.1-0.1,0.2-0.1,0.3,0c0,0,0,0,0,0.1
							c0,0,0,0,0,0.1c0,0,0,0.1,0,0.1C126.9,139.3,126.8,139.3,126.7,139.3C126.8,139.3,126.8,139.3,126.7,139.3z"/>
					</g>
				</g>
			</g>
			<g>
				<g>
					<polygon class="st9" points="117,138.2 107.6,136 107.6,140.4 					"/>
				</g>
				<g>
					<polygon class="st10" points="117,138.2 114.6,137.6 114.6,138.8 					"/>
				</g>
				<g>
					<path class="st18" d="M107.5,140.4c0.4,0,0.7-0.3,0.7-0.7c0-0.4-0.3-0.7-0.7-0.7c0.4,0,0.7-0.3,0.7-0.7c0-0.4-0.3-0.7-0.7-0.7
						c0.4,0,0.7-0.3,0.7-0.7c0-0.4-0.3-0.7-0.7-0.7l-61.2,0v0l-2,0c-0.7,0-1.4,0.6-1.4,1.4l0,1.7c0,0.7,0.6,1.4,1.4,1.4l0.7,0l0,0
						L107.5,140.4z"/>
				</g>
				<g>
					<path class="st19" d="M107.5,140.4c0.4,0,0.7-0.3,0.7-0.7c0-0.4-0.3-0.7-0.7-0.7c0.4,0-58.5-0.2-64.5-0.2l0,0.2
						c0,0.7,0.6,1.4,1.4,1.4l0.7,0l0,0L107.5,140.4z"/>
				</g>
				<g>
					<path class="st3" d="M55.9,136l-9.6,0l-2,0c-0.7,0-1.4,0.6-1.4,1.4l0,1.7c0,0.7,0.6,1.4,1.4,1.4l0.7,0l10.9,0L55.9,136z"/>
				</g>
				<g>
					<polygon class="st13" points="55.9,135.9 54.7,135.9 54.7,140.4 55.9,140.4 					"/>
				</g>
				<g>
					<polygon class="st3" points="63.5,138.5 63.5,137.9 59,137.9 59,138.5 					"/>
				</g>
				<g>
					<polygon class="st13" points="53,138.5 53,137.9 50.8,137.9 50.8,138.5 					"/>
				</g>
			</g>
			<g>
				<g>
					<g class="st20">
						<g>
							<g>
								
									<ellipse transform="matrix(0.499 -0.8666 0.8666 0.499 14.7823 93.9072)" class="st4" cx="88.6" cy="34.2" rx="10.2" ry="10.2"/>
							</g>
						</g>
					</g>
					<g>
						<g>
							<g>
								<path class="st10" d="M83,44c-2.5-1.4-4.5-3.8-5.3-6.8c-1.7-6,1.9-12.3,7.9-13.9c6-1.7,12.3,1.9,13.9,7.9
									c1.7,6-1.9,12.3-7.9,13.9C88.6,45.9,85.5,45.4,83,44z M93.1,26.3c-2-1.2-4.5-1.5-6.9-0.9c-4.8,1.3-7.7,6.3-6.4,11.2
									c1.3,4.8,6.3,7.7,11.2,6.4c4.8-1.3,7.7-6.3,6.4-11.2C96.7,29.3,95.1,27.4,93.1,26.3z"/>
							</g>
						</g>
					</g>
					<g>
						<g>
							<g>
								<path class="st21" d="M82.5,30.1C82.5,30.1,82.4,30.1,82.5,30.1c-0.3-0.2-0.4-0.5-0.2-0.8c0.5-0.7,1-1.3,1.6-1.8
									c0.2-0.2,0.6-0.2,0.8,0c0.2,0.2,0.2,0.6,0,0.8c-0.5,0.5-1,1-1.4,1.6C83,30.2,82.7,30.2,82.5,30.1z"/>
							</g>
						</g>
					</g>
					<g>
						<g>
							<g>
								<path class="st21" d="M81.2,32.6c-0.2-0.1-0.3-0.4-0.2-0.7c0.1-0.4,0.3-0.9,0.5-1.3c0.1-0.3,0.5-0.4,0.7-0.3
									c0.3,0.1,0.4,0.5,0.3,0.7c-0.2,0.4-0.3,0.8-0.5,1.1C81.9,32.6,81.6,32.8,81.2,32.6C81.3,32.7,81.2,32.6,81.2,32.6z"/>
							</g>
						</g>
					</g>
					<g>
						<g>
							<g>
								<path class="st10" d="M95.2,62.4c-0.4-0.2-0.7-0.6-0.8-1L89.9,45c-0.2-0.9,0.3-1.8,1.2-2c0.9-0.2,1.8,0.3,2,1.2l4.5,16.4
									c0.2,0.9-0.3,1.8-1.2,2C96,62.6,95.5,62.6,95.2,62.4z"/>
							</g>
						</g>
					</g>
				</g>
				<g>
					<g>
						<path class="st8" d="M89.9,47.3c-0.2-0.1-0.3-0.3-0.4-0.5c-0.1-0.4,0.1-0.9,0.6-1l3.2-0.9c0.4-0.1,0.9,0.1,1,0.6
							c0.1,0.4-0.1,0.9-0.6,1l-3.2,0.9C90.3,47.5,90.1,47.4,89.9,47.3z"/>
					</g>
				</g>
			</g>
			<g>
				<path class="st8" d="M68.9,21.4c-0.3,0-0.6-0.3-0.6-0.6v-4.6c0-0.3,0.3-0.6,0.6-0.6c0.3,0,0.6,0.3,0.6,0.6v4.6
					C69.5,21.2,69.2,21.4,68.9,21.4z"/>
			</g>
			<g>
				<path class="st8" d="M59.3,23.2c-0.1,0-0.3-0.1-0.4-0.2l-3.3-3.3c-0.2-0.2-0.2-0.6,0-0.8c0.2-0.2,0.6-0.2,0.8,0l3.3,3.3
					c0.2,0.2,0.2,0.6,0,0.8C59.6,23.1,59.5,23.2,59.3,23.2z"/>
			</g>
			<g>
				<path class="st8" d="M78.4,23.2c-0.1,0-0.3-0.1-0.4-0.2c-0.2-0.2-0.2-0.6,0-0.8l3.3-3.3c0.2-0.2,0.6-0.2,0.8,0
					c0.2,0.2,0.2,0.6,0,0.8L78.8,23C78.7,23.1,78.6,23.2,78.4,23.2z"/>
			</g>
		</g>
	</g>
</g>
</svg>
