<svg width="132" height="132" viewBox="0 0 132 132" fill="none"
    xmlns="http://www.w3.org/2000/svg">
    <rect x="0.5" y="0.5" width="131" height="131" rx="7.5" fill="white" stroke="#D0DEEF"/>
    <path d="M0 8.00001C0 3.58173 3.58172 0 8 0H124C128.418 0 132 3.58172 132 8V51.1053C132 51.6575 131.552 52.1053 131 52.1053H0.999999C0.447714 52.1053 0 51.6575 0 51.1053V8.00001Z" fill="#8997A8"/>
    <rect x="13.2012" y="13.2007" width="56.1" height="5.5" rx="2.5" fill="#ECEEFF"/>
    <rect x="13.1992" y="23.1016" width="38.5" height="5.5" rx="2.5" fill="#ECEEFF"/>
    <rect x="13.1992" y="33.0015" width="23.1" height="5.5" rx="2.5" fill="#ECEEFF"/>
    <path d="M79.5984 106.322C80.703 106.322 81.5984 105.427 81.5984 104.322C81.5984 103.218 80.703 102.322 79.5984 102.322L79.5984 106.322ZM53.5645 102.322C52.4599 102.322 51.5645 103.218 51.5645 104.322C51.5645 105.427 52.4599 106.322 53.5645 106.322L53.5645 102.322ZM79.5984 102.322L53.5645 102.322L53.5645 106.322L79.5984 106.322L79.5984 102.322Z" fill="#B1BFCA"/>
    <ellipse cx="42.352" cy="76.2724" rx="3.85" ry="3.85" fill="#B1BFCA"/>
    <ellipse cx="90.7523" cy="76.2714" rx="3.85001" ry="3.85" fill="#B1BFCA"/>
</svg>
