<svg width="42" height="42" viewBox="0 0 42 42" fill="none" xmlns="http://www.w3.org/2000/svg">
    <g clipPath="url(#clip0)">
        <path d="M25.0645 21.0001C25.0645 21.8301 24.8157 22.602 24.3887 23.2453C23.6607 24.3418 22.4147 24.5685 21 24.5685C18.7552 24.5685 17.541 23.2449 17.541 21.0001C17.541 19.5838 17.6599 18.3367 18.7583 17.6091C19.4008 17.1834 20.1714 16.9355 20.9999 16.9355C23.2448 16.9356 25.0645 18.7553 25.0645 21.0001Z" fill="#E5646E"/>
        <path d="M22.1431 23.9214C19.8984 23.9214 18.0787 22.1017 18.0787 19.857C18.0787 19.027 18.3313 18.2524 18.7584 17.6091C17.6619 18.3371 16.9355 19.5853 16.9355 21.0001C16.9355 23.2449 18.7552 25.0646 21 25.0646C22.4148 25.0646 23.6607 24.3418 24.3887 23.2453C23.7455 23.6723 22.9731 23.9214 22.1431 23.9214Z" fill="#DB4655"/>
        <path d="M7.10891 5.75415C7.45557 5.75415 7.80224 5.88647 8.06679 6.1511C8.07918 6.16349 8.09123 6.17604 8.10305 6.18875L7.35541 8.06694C3.90091 11.5215 1.99828 16.1146 1.99828 21.0001C1.99828 25.8855 3.90091 30.4786 7.35541 33.9332L8.10346 35.8109C8.09148 35.8238 8.07926 35.8365 8.06679 35.849C7.53818 36.3783 6.68021 36.3783 6.15095 35.849C2.18441 31.8827 0 26.6093 0 21.0001C0 15.3909 2.18441 10.1174 6.15103 6.1511C6.41534 5.88647 6.76225 5.75415 7.10891 5.75415Z" fill="#FFE6E7"/>
        <path d="M14.7732 13.4182C15.1198 13.4182 15.4668 13.5505 15.7311 13.8152C15.758 13.8421 15.7835 13.8697 15.8076 13.8983L14.8889 15.7309C11.9838 18.6364 11.9838 23.3638 14.8889 26.2693L15.8094 28.1C15.7847 28.1292 15.7586 28.1576 15.7311 28.1852C15.2024 28.7144 14.3438 28.7144 13.8152 28.1852C9.85326 24.2235 9.85326 17.7768 13.8152 13.8152C14.0795 13.5504 14.4265 13.4182 14.7732 13.4182Z" fill="#FF9A9F"/>
        <path d="M10.9403 9.58618C11.287 9.58618 11.6337 9.7185 11.8982 9.98313C11.9136 9.99855 11.9286 10.0141 11.9431 10.0301L10.7868 11.8989C5.76907 16.9173 5.76907 25.0828 10.7868 30.1012L11.9441 31.969C11.9293 31.9853 11.914 32.0013 11.8983 32.017C11.369 32.5462 10.5117 32.5462 9.98245 32.017C3.90819 25.9424 3.90819 16.0576 9.98245 9.98297C10.247 9.7185 10.5937 9.58618 10.9403 9.58618Z" fill="#FFCCCF"/>
        <path d="M12.1934 21.0001C12.1934 23.9171 13.6245 26.4974 15.809 28.1C16.2593 27.5679 16.2327 26.771 15.7306 26.2693C12.8255 23.3639 12.8255 18.6365 15.7306 15.7309C16.2327 15.2292 16.2575 14.4303 15.8072 13.8982C13.6228 15.5008 12.1934 18.0832 12.1934 21.0001Z" fill="#F5646C"/>
        <path d="M6.77441 21C6.77441 25.4138 8.78976 29.3596 11.9445 31.969C12.4278 31.4374 12.4123 30.6145 11.8987 30.1012C6.88097 25.0828 6.88097 16.9173 11.8987 11.8989C12.4123 11.3856 12.4269 10.5616 11.9436 10.03C8.78877 12.6393 6.77441 16.5862 6.77441 21Z" fill="#FF9A9F"/>
        <path d="M1.35449 21C1.35449 26.9107 3.97252 32.2094 8.1032 35.8109C8.59572 35.2797 8.58333 34.4497 8.06654 33.9332C4.61195 30.4786 2.70932 25.8855 2.70932 21C2.70932 16.1146 4.61195 11.5215 8.06654 8.06691C8.58333 7.55044 8.59531 6.71996 8.10279 6.18872C3.97211 9.79014 1.35449 15.0894 1.35449 21Z" fill="#FFCCCF"/>
        <path d="M34.891 36.246C34.5444 36.246 34.1977 36.1137 33.9332 35.849C33.9208 35.8367 33.9087 35.8241 33.8969 35.8114L34.6445 33.9332C38.099 30.4786 40.0017 25.8855 40.0017 21.0001C40.0017 16.1146 38.099 11.5215 34.6445 8.06694L33.8965 6.18924C33.9085 6.17636 33.9207 6.16365 33.9332 6.1511C34.4618 5.62183 35.3197 5.62183 35.849 6.1511C39.8155 10.1174 41.9999 15.3909 41.9999 21.0001C41.9999 26.6093 39.8155 31.8827 35.8489 35.849C35.5846 36.1137 35.2377 36.246 34.891 36.246Z" fill="#FFE6E7"/>
        <path d="M27.2266 28.5819C26.88 28.5819 26.533 28.4496 26.2688 28.185C26.2419 28.1581 26.2164 28.1304 26.1922 28.1019L27.1109 26.2691C30.016 23.3637 30.016 18.6363 27.1109 15.7308L26.1904 13.9001C26.2151 13.8709 26.2412 13.8425 26.2688 13.8149C26.7974 13.2857 27.656 13.2857 28.1846 13.8149C32.1465 17.7765 32.1465 24.2233 28.1846 28.1849C27.9203 28.4497 27.5733 28.5819 27.2266 28.5819Z" fill="#FF9A9F"/>
        <path d="M31.0594 32.414C30.7127 32.414 30.3661 32.2817 30.1015 32.0171C30.0861 32.0016 30.0712 31.986 30.0566 31.97L31.2129 30.1012C36.2307 25.0828 36.2307 16.9173 31.2129 11.8989L30.0557 10.0311C30.0704 10.0148 30.0857 9.9988 30.1014 9.98313C30.6307 9.45387 31.488 9.45387 32.0173 9.98313C38.0915 16.0577 38.0915 25.9425 32.0173 32.0171C31.7527 32.2817 31.4061 32.414 31.0594 32.414Z" fill="#FFCCCF"/>
        <path d="M29.8067 21C29.8067 18.0831 28.3756 15.5027 26.1911 13.9001C25.7408 14.4323 25.7674 15.2291 26.2695 15.7308C29.1746 18.6363 29.1746 23.3637 26.2695 26.2692C25.7674 26.7709 25.7426 27.5698 26.1929 28.102C28.3773 26.4994 29.8067 23.917 29.8067 21Z" fill="#F5646C"/>
        <path d="M35.2255 21C35.2255 16.5862 33.2102 12.6403 30.0554 10.031C29.5721 10.5626 29.5876 11.3855 30.1012 11.8988C35.119 16.9172 35.119 25.0827 30.1012 30.1011C29.5876 30.6144 29.5731 31.4384 30.0563 31.9699C33.2112 29.3607 35.2255 25.4138 35.2255 21Z" fill="#FF9A9F"/>
        <path d="M40.6452 21.0001C40.6452 15.0894 38.0272 9.79071 33.8965 6.18921C33.404 6.72044 33.4164 7.55044 33.9332 8.0669C37.3878 11.5215 39.2903 16.1146 39.2903 21C39.2903 25.8855 37.3877 30.4786 33.9332 33.9332C33.4164 34.4496 33.4044 35.2801 33.8969 35.8114C38.0276 32.21 40.6452 26.9108 40.6452 21.0001Z" fill="#FFCCCF"/>
    </g>
    <defs>
        <clipPath id="clip0">
            <rect width="42" height="42" fill="white"/>
        </clipPath>
    </defs>
</svg>