<svg viewBox="0 0 512 512" xmlns="http://www.w3.org/2000/svg"><path d="M222 327.8a11.34 11.34 0 0 0 16 16l80.86-80.8a11.35 11.35 0 0 0 0-16l-80.81-80.82a11.34 11.34 0 0 0-16 16l61.47 61.46H63.9a11.34 11.34 0 0 0 0 22.68h219.57Z" fill="#ffffff" class="fill-262626"></path><path d="M372.84 59.53H184.26a45.7 45.7 0 0 0-45.64 45.65v46.12a11.34 11.34 0 0 0 22.67 0v-46.12a23 23 0 0 1 23-23h188.55a23 23 0 0 1 23 23V407a23 23 0 0 1-23 23H184.26a23 23 0 0 1-23-23v-45a11.34 11.34 0 1 0-22.67 0v45a45.7 45.7 0 0 0 45.64 45.65h188.61A45.7 45.7 0 0 0 418.49 407V105.18a45.7 45.7 0 0 0-45.65-45.65Z" fill="#ffffff" class="fill-262626"></path></svg>